<mxfile host="app.diagrams.net" modified="2021-08-26T20:48:13.059Z" agent="5.0 (Macintosh; Intel Mac OS X 10_15_7) AppleWebKit/537.36 (KHTML, like Gecko) Chrome/92.0.4515.159 Safari/537.36" etag="WbOtii7yjOfAH_pTr7yo" version="14.9.9" type="github">
  <diagram id="pZ9rBWYHsNekKi-I6zzL" name="Page-1">
    <mxGraphModel dx="652" dy="409" grid="1" gridSize="10" guides="1" tooltips="1" connect="1" arrows="1" fold="1" page="1" pageScale="1" pageWidth="827" pageHeight="1169" background="#FFFFFF" math="0" shadow="1">
      <root>
        <mxCell id="0" />
        <mxCell id="1" parent="0" />
        <mxCell id="1038E3OsoZRpimCnhqwp-4" value="" style="edgeStyle=orthogonalEdgeStyle;rounded=0;orthogonalLoop=1;jettySize=auto;html=1;" edge="1" parent="1" source="1038E3OsoZRpimCnhqwp-1" target="1038E3OsoZRpimCnhqwp-2">
          <mxGeometry relative="1" as="geometry" />
        </mxCell>
        <mxCell id="1038E3OsoZRpimCnhqwp-1" value="" style="ellipse;whiteSpace=wrap;html=1;" vertex="1" parent="1">
          <mxGeometry x="330" y="20" width="100" height="60" as="geometry" />
        </mxCell>
        <mxCell id="1038E3OsoZRpimCnhqwp-5" value="" style="edgeStyle=orthogonalEdgeStyle;rounded=0;orthogonalLoop=1;jettySize=auto;html=1;" edge="1" parent="1" source="1038E3OsoZRpimCnhqwp-2" target="1038E3OsoZRpimCnhqwp-3">
          <mxGeometry relative="1" as="geometry" />
        </mxCell>
        <mxCell id="1038E3OsoZRpimCnhqwp-2" value="int num1 = 2&lt;br&gt;int num2 = 3&lt;br&gt;int Zähler = 0&lt;br&gt;int sum = 0" style="rounded=0;whiteSpace=wrap;html=1;" vertex="1" parent="1">
          <mxGeometry x="320" y="100" width="120" height="60" as="geometry" />
        </mxCell>
        <mxCell id="1038E3OsoZRpimCnhqwp-11" value="" style="edgeStyle=orthogonalEdgeStyle;rounded=0;orthogonalLoop=1;jettySize=auto;html=1;" edge="1" parent="1" source="1038E3OsoZRpimCnhqwp-3" target="1038E3OsoZRpimCnhqwp-8">
          <mxGeometry relative="1" as="geometry" />
        </mxCell>
        <mxCell id="1038E3OsoZRpimCnhqwp-3" value="if Zähler &amp;lt;= num2" style="shape=trapezoid;perimeter=trapezoidPerimeter;whiteSpace=wrap;html=1;fixedSize=1;" vertex="1" parent="1">
          <mxGeometry x="320" y="180" width="125" height="40" as="geometry" />
        </mxCell>
        <mxCell id="1038E3OsoZRpimCnhqwp-6" value="sum = sum + num1&amp;nbsp;" style="rounded=0;whiteSpace=wrap;html=1;" vertex="1" parent="1">
          <mxGeometry x="320" y="240" width="120" height="40" as="geometry" />
        </mxCell>
        <mxCell id="1038E3OsoZRpimCnhqwp-12" value="" style="edgeStyle=orthogonalEdgeStyle;rounded=0;orthogonalLoop=1;jettySize=auto;html=1;" edge="1" parent="1" source="1038E3OsoZRpimCnhqwp-8" target="1038E3OsoZRpimCnhqwp-10">
          <mxGeometry relative="1" as="geometry" />
        </mxCell>
        <mxCell id="1038E3OsoZRpimCnhqwp-8" value="" style="shape=trapezoid;perimeter=trapezoidPerimeter;whiteSpace=wrap;html=1;fixedSize=1;rotation=-180;" vertex="1" parent="1">
          <mxGeometry x="320" y="310" width="120" height="40" as="geometry" />
        </mxCell>
        <mxCell id="1038E3OsoZRpimCnhqwp-9" value="print sum" style="rounded=0;whiteSpace=wrap;html=1;" vertex="1" parent="1">
          <mxGeometry x="322" y="370" width="120" height="30" as="geometry" />
        </mxCell>
        <mxCell id="1038E3OsoZRpimCnhqwp-10" value="" style="ellipse;whiteSpace=wrap;html=1;" vertex="1" parent="1">
          <mxGeometry x="327.5" y="420" width="110" height="50" as="geometry" />
        </mxCell>
      </root>
    </mxGraphModel>
  </diagram>
</mxfile>
